<?xml version="1.0" encoding="UTF-8" standalone="no"?>
<!DOCTYPE svg PUBLIC "-//W3C//DTD SVG 1.1//EN"
 "http://www.w3.org/Graphics/SVG/1.1/DTD/svg11.dtd">
<!-- Generated by graphviz version 12.2.1 (20241206.2353)
 -->
<!-- Title: UMLClassDiagram Pages: 1 -->
<svg width="2095pt" height="281pt"
 viewBox="0.00 0.00 2095.25 280.50" xmlns="http://www.w3.org/2000/svg" xmlns:xlink="http://www.w3.org/1999/xlink">
<g id="graph0" class="graph" transform="scale(1 1) rotate(0) translate(4 276.5)">
<title>UMLClassDiagram</title>
<polygon fill="white" stroke="none" points="-4,4 -4,-276.5 2091.25,-276.5 2091.25,4 -4,4"/>
<text text-anchor="middle" x="1043.62" y="-247.6" font-family="Arial" font-size="22.00">Placement Management System &#45; UML Class Diagram</text>
<!-- User -->
<g id="node1" class="node">
<title>User</title>
<path fill="#eef4ff" stroke="#345995" d="M47.62,-49.5C47.62,-49.5 210.38,-49.5 210.38,-49.5 216.38,-49.5 222.38,-55.5 222.38,-61.5 222.38,-61.5 222.38,-93.5 222.38,-93.5 222.38,-99.5 216.38,-105.5 210.38,-105.5 210.38,-105.5 47.62,-105.5 47.62,-105.5 41.62,-105.5 35.62,-99.5 35.62,-93.5 35.62,-93.5 35.62,-61.5 35.62,-61.5 35.62,-55.5 41.62,-49.5 47.62,-49.5"/>
<text text-anchor="middle" x="54.12" y="-74" font-family="Arial" font-size="10.00">User</text>
<polyline fill="none" stroke="#345995" points="72.62,-49.5 72.62,-105.5"/>
<text text-anchor="start" x="80.62" y="-92" font-family="Arial" font-size="10.00">user_id: int</text>
<text text-anchor="start" x="80.62" y="-80" font-family="Arial" font-size="10.00">email: str</text>
<text text-anchor="start" x="80.62" y="-68" font-family="Arial" font-size="10.00">full_name: str</text>
<text text-anchor="start" x="80.62" y="-56" font-family="Arial" font-size="10.00">role: Role</text>
<polyline fill="none" stroke="#345995" points="147.88,-49.5 147.88,-105.5"/>
<text text-anchor="start" x="155.88" y="-80" font-family="Arial" font-size="10.00">login()</text>
<text text-anchor="start" x="155.88" y="-68" font-family="Arial" font-size="10.00">issue_token()</text>
</g>
<!-- Student -->
<g id="node2" class="node">
<title>Student</title>
<path fill="#eef4ff" stroke="#345995" d="M635.25,-62.5C635.25,-62.5 843.75,-62.5 843.75,-62.5 849.75,-62.5 855.75,-68.5 855.75,-74.5 855.75,-74.5 855.75,-94.5 855.75,-94.5 855.75,-100.5 849.75,-106.5 843.75,-106.5 843.75,-106.5 635.25,-106.5 635.25,-106.5 629.25,-106.5 623.25,-100.5 623.25,-94.5 623.25,-94.5 623.25,-74.5 623.25,-74.5 623.25,-68.5 629.25,-62.5 635.25,-62.5"/>
<text text-anchor="middle" x="648.12" y="-81" font-family="Arial" font-size="10.00">Student</text>
<polyline fill="none" stroke="#345995" points="673,-62.5 673,-106.5"/>
<text text-anchor="start" x="681" y="-93" font-family="Arial" font-size="10.00">student_id: int</text>
<text text-anchor="start" x="681" y="-81" font-family="Arial" font-size="10.00">roll_number: str</text>
<text text-anchor="start" x="681" y="-69" font-family="Arial" font-size="10.00">cgpa: float</text>
<polyline fill="none" stroke="#345995" points="756.5,-62.5 756.5,-106.5"/>
<text text-anchor="start" x="764.5" y="-93" font-family="Arial" font-size="10.00">browse_jobs()</text>
<text text-anchor="start" x="764.5" y="-81" font-family="Arial" font-size="10.00">apply(job_id)</text>
<text text-anchor="start" x="764.5" y="-69" font-family="Arial" font-size="10.00">view_applications()</text>
</g>
<!-- User&#45;&gt;Student -->
<g id="edge1" class="edge">
<title>User&#45;&gt;Student</title>
<path fill="none" stroke="#506784" d="M222.75,-78.57C326.59,-79.76 495.48,-81.7 611.53,-83.04"/>
<polygon fill="#506784" stroke="#506784" points="611.39,-86.54 621.43,-83.15 611.47,-79.54 611.39,-86.54"/>
<text text-anchor="middle" x="309.75" y="-81.77" font-family="Arial" font-size="9.00">profile</text>
</g>
<!-- Recruiter -->
<g id="node3" class="node">
<title>Recruiter</title>
<path fill="#eef4ff" stroke="#345995" d="M373.5,-18.5C373.5,-18.5 593.25,-18.5 593.25,-18.5 599.25,-18.5 605.25,-24.5 605.25,-30.5 605.25,-30.5 605.25,-42.5 605.25,-42.5 605.25,-48.5 599.25,-54.5 593.25,-54.5 593.25,-54.5 373.5,-54.5 373.5,-54.5 367.5,-54.5 361.5,-48.5 361.5,-42.5 361.5,-42.5 361.5,-30.5 361.5,-30.5 361.5,-24.5 367.5,-18.5 373.5,-18.5"/>
<text text-anchor="middle" x="389.38" y="-33" font-family="Arial" font-size="10.00">Recruiter</text>
<polyline fill="none" stroke="#345995" points="417.25,-18.5 417.25,-54.5"/>
<text text-anchor="start" x="425.25" y="-39" font-family="Arial" font-size="10.00">recruiter_id: int</text>
<text text-anchor="start" x="425.25" y="-27" font-family="Arial" font-size="10.00">company_id: int</text>
<polyline fill="none" stroke="#345995" points="502.25,-18.5 502.25,-54.5"/>
<text text-anchor="start" x="510.25" y="-39" font-family="Arial" font-size="10.00">create_job()</text>
<text text-anchor="start" x="510.25" y="-27" font-family="Arial" font-size="10.00">update_application()</text>
</g>
<!-- User&#45;&gt;Recruiter -->
<g id="edge2" class="edge">
<title>User&#45;&gt;Recruiter</title>
<path fill="none" stroke="#506784" d="M222.87,-59.88C240.47,-56.93 258.76,-54.15 276,-52 299.81,-49.03 325.24,-46.56 349.82,-44.53"/>
<polygon fill="#506784" stroke="#506784" points="349.85,-48.03 359.54,-43.74 349.29,-41.06 349.85,-48.03"/>
<text text-anchor="middle" x="309.75" y="-53.95" font-family="Arial" font-size="9.00">profile</text>
</g>
<!-- Application -->
<g id="node6" class="node">
<title>Application</title>
<path fill="#eef4ff" stroke="#345995" d="M1517.25,-35.5C1517.25,-35.5 1746.75,-35.5 1746.75,-35.5 1752.75,-35.5 1758.75,-41.5 1758.75,-47.5 1758.75,-47.5 1758.75,-67.5 1758.75,-67.5 1758.75,-73.5 1752.75,-79.5 1746.75,-79.5 1746.75,-79.5 1517.25,-79.5 1517.25,-79.5 1511.25,-79.5 1505.25,-73.5 1505.25,-67.5 1505.25,-67.5 1505.25,-47.5 1505.25,-47.5 1505.25,-41.5 1511.25,-35.5 1517.25,-35.5"/>
<text text-anchor="middle" x="1537.25" y="-54" font-family="Arial" font-size="10.00">Application</text>
<polyline fill="none" stroke="#345995" points="1569.25,-35.5 1569.25,-79.5"/>
<text text-anchor="middle" x="1621.12" y="-66" font-family="Arial" font-size="10.00">application_id: int</text>
<text text-anchor="middle" x="1621.12" y="-54" font-family="Arial" font-size="10.00">status: str</text>
<text text-anchor="middle" x="1621.12" y="-42" font-family="Arial" font-size="10.00">applied_at: datetime</text>
<polyline fill="none" stroke="#345995" points="1673,-35.5 1673,-79.5"/>
<text text-anchor="middle" x="1715.88" y="-60" font-family="Arial" font-size="10.00">submit()</text>
<text text-anchor="middle" x="1715.88" y="-48" font-family="Arial" font-size="10.00">change_status()</text>
</g>
<!-- Student&#45;&gt;Application -->
<g id="edge5" class="edge">
<title>Student&#45;&gt;Application</title>
<path fill="none" stroke="#506784" d="M855.98,-81.81C993.77,-78.5 1231.1,-72.44 1434.75,-65.5 1453.78,-64.85 1473.85,-64.11 1493.6,-63.33"/>
<polygon fill="#506784" stroke="#506784" points="1493.49,-66.84 1503.34,-62.95 1493.21,-59.85 1493.49,-66.84"/>
<text text-anchor="middle" x="1112.62" y="-77.58" font-family="Arial" font-size="9.00">submits</text>
</g>
<!-- Company -->
<g id="node4" class="node">
<title>Company</title>
<path fill="#eef4ff" stroke="#345995" d="M885.75,-11.5C885.75,-11.5 1062.75,-11.5 1062.75,-11.5 1068.75,-11.5 1074.75,-17.5 1074.75,-23.5 1074.75,-23.5 1074.75,-43.5 1074.75,-43.5 1074.75,-49.5 1068.75,-55.5 1062.75,-55.5 1062.75,-55.5 885.75,-55.5 885.75,-55.5 879.75,-55.5 873.75,-49.5 873.75,-43.5 873.75,-43.5 873.75,-23.5 873.75,-23.5 873.75,-17.5 879.75,-11.5 885.75,-11.5"/>
<text text-anchor="middle" x="902.75" y="-30" font-family="Arial" font-size="10.00">Company</text>
<polyline fill="none" stroke="#345995" points="931.75,-11.5 931.75,-55.5"/>
<text text-anchor="start" x="939.75" y="-42" font-family="Arial" font-size="10.00">company_id: int</text>
<text text-anchor="start" x="939.75" y="-30" font-family="Arial" font-size="10.00">name: str</text>
<text text-anchor="start" x="939.75" y="-18" font-family="Arial" font-size="10.00">industry: str</text>
<polyline fill="none" stroke="#345995" points="1016.75,-11.5 1016.75,-55.5"/>
<text text-anchor="start" x="1024.75" y="-30" font-family="Arial" font-size="10.00">list_jobs()</text>
</g>
<!-- Recruiter&#45;&gt;Company -->
<g id="edge3" class="edge">
<title>Recruiter&#45;&gt;Company</title>
<path fill="none" stroke="#506784" d="M605.53,-35.76C684.1,-35.27 785.68,-34.65 862.16,-34.18"/>
<polygon fill="#506784" stroke="#506784" points="861.76,-37.68 871.74,-34.12 861.72,-30.68 861.76,-37.68"/>
<text text-anchor="middle" x="739.5" y="-37.56" font-family="Arial" font-size="9.00">works for</text>
</g>
<!-- JobPosting -->
<g id="node5" class="node">
<title>JobPosting</title>
<path fill="#eef4ff" stroke="#345995" d="M1162.5,-0.5C1162.5,-0.5 1422.75,-0.5 1422.75,-0.5 1428.75,-0.5 1434.75,-6.5 1434.75,-12.5 1434.75,-12.5 1434.75,-44.5 1434.75,-44.5 1434.75,-50.5 1428.75,-56.5 1422.75,-56.5 1422.75,-56.5 1162.5,-56.5 1162.5,-56.5 1156.5,-56.5 1150.5,-50.5 1150.5,-44.5 1150.5,-44.5 1150.5,-12.5 1150.5,-12.5 1150.5,-6.5 1156.5,-0.5 1162.5,-0.5"/>
<text text-anchor="middle" x="1182.88" y="-25" font-family="Arial" font-size="10.00">JobPosting</text>
<polyline fill="none" stroke="#345995" points="1215.25,-0.5 1215.25,-56.5"/>
<text text-anchor="middle" x="1268.62" y="-43" font-family="Arial" font-size="10.00">job_id: int</text>
<text text-anchor="middle" x="1268.62" y="-31" font-family="Arial" font-size="10.00">title: str</text>
<text text-anchor="middle" x="1268.62" y="-19" font-family="Arial" font-size="10.00">minimum_cgpa: float</text>
<text text-anchor="middle" x="1268.62" y="-7" font-family="Arial" font-size="10.00">status: str</text>
<polyline fill="none" stroke="#345995" points="1322,-0.5 1322,-56.5"/>
<text text-anchor="middle" x="1378.38" y="-31" font-family="Arial" font-size="10.00">is_open()</text>
<text text-anchor="middle" x="1378.38" y="-19" font-family="Arial" font-size="10.00">meets_eligibility(cgpa)</text>
</g>
<!-- Company&#45;&gt;JobPosting -->
<g id="edge4" class="edge">
<title>Company&#45;&gt;JobPosting</title>
<path fill="none" stroke="#506784" d="M1074.92,-31.92C1095.28,-31.6 1117.14,-31.26 1138.87,-30.91"/>
<polygon fill="#506784" stroke="#506784" points="1138.76,-34.42 1148.7,-30.76 1138.65,-27.42 1138.76,-34.42"/>
<text text-anchor="middle" x="1112.62" y="-33.54" font-family="Arial" font-size="9.00">publishes</text>
</g>
<!-- JobPosting&#45;&gt;Application -->
<g id="edge6" class="edge">
<title>JobPosting&#45;&gt;Application</title>
<path fill="none" stroke="#506784" d="M1435.24,-40.67C1454.53,-42.33 1474.31,-44.03 1493.53,-45.68"/>
<polygon fill="#506784" stroke="#506784" points="1493,-49.15 1503.27,-46.52 1493.6,-42.18 1493,-49.15"/>
<text text-anchor="middle" x="1470" y="-46.69" font-family="Arial" font-size="9.00">receives</text>
</g>
<!-- Interview -->
<g id="node7" class="node">
<title>Interview</title>
<path fill="#eef4ff" stroke="#345995" d="M1864.5,-67.5C1864.5,-67.5 2074.5,-67.5 2074.5,-67.5 2080.5,-67.5 2086.5,-73.5 2086.5,-79.5 2086.5,-79.5 2086.5,-99.5 2086.5,-99.5 2086.5,-105.5 2080.5,-111.5 2074.5,-111.5 2074.5,-111.5 1864.5,-111.5 1864.5,-111.5 1858.5,-111.5 1852.5,-105.5 1852.5,-99.5 1852.5,-99.5 1852.5,-79.5 1852.5,-79.5 1852.5,-73.5 1858.5,-67.5 1864.5,-67.5"/>
<text text-anchor="middle" x="1880.38" y="-86" font-family="Arial" font-size="10.00">Interview</text>
<polyline fill="none" stroke="#345995" points="1908.25,-67.5 1908.25,-111.5"/>
<text text-anchor="middle" x="1966.88" y="-98" font-family="Arial" font-size="10.00">interview_id: int</text>
<text text-anchor="middle" x="1966.88" y="-86" font-family="Arial" font-size="10.00">scheduled_at: datetime</text>
<text text-anchor="middle" x="1966.88" y="-74" font-family="Arial" font-size="10.00">mode: str</text>
<polyline fill="none" stroke="#345995" points="2025.5,-67.5 2025.5,-111.5"/>
<text text-anchor="middle" x="2056" y="-92" font-family="Arial" font-size="10.00">schedule()</text>
<text text-anchor="middle" x="2056" y="-80" font-family="Arial" font-size="10.00">cancel()</text>
</g>
<!-- Application&#45;&gt;Interview -->
<g id="edge7" class="edge">
<title>Application&#45;&gt;Interview</title>
<path fill="none" stroke="#506784" d="M1758.88,-69.51C1785.65,-72.06 1813.93,-74.76 1840.76,-77.32"/>
<polygon fill="#506784" stroke="#506784" points="1840.37,-80.79 1850.65,-78.26 1841.03,-73.83 1840.37,-80.79"/>
<text text-anchor="middle" x="1805.25" y="-78.32" font-family="Arial" font-size="9.00">may schedule</text>
</g>
<!-- Placement -->
<g id="node8" class="node">
<title>Placement</title>
<path fill="#eef4ff" stroke="#345995" d="M1863.75,-4.5C1863.75,-4.5 2075.25,-4.5 2075.25,-4.5 2081.25,-4.5 2087.25,-10.5 2087.25,-16.5 2087.25,-16.5 2087.25,-36.5 2087.25,-36.5 2087.25,-42.5 2081.25,-48.5 2075.25,-48.5 2075.25,-48.5 1863.75,-48.5 1863.75,-48.5 1857.75,-48.5 1851.75,-42.5 1851.75,-36.5 1851.75,-36.5 1851.75,-16.5 1851.75,-16.5 1851.75,-10.5 1857.75,-4.5 1863.75,-4.5"/>
<text text-anchor="middle" x="1883" y="-23" font-family="Arial" font-size="10.00">Placement</text>
<polyline fill="none" stroke="#345995" points="1914.25,-4.5 1914.25,-48.5"/>
<text text-anchor="middle" x="1973.62" y="-35" font-family="Arial" font-size="10.00">placement_id: int</text>
<text text-anchor="middle" x="1973.62" y="-23" font-family="Arial" font-size="10.00">placed_at: date</text>
<text text-anchor="middle" x="1973.62" y="-11" font-family="Arial" font-size="10.00">final_package_lpa: float</text>
<polyline fill="none" stroke="#345995" points="2033,-4.5 2033,-48.5"/>
<text text-anchor="middle" x="2060.12" y="-23" font-family="Arial" font-size="10.00">confirm()</text>
</g>
<!-- Application&#45;&gt;Placement -->
<g id="edge8" class="edge">
<title>Application&#45;&gt;Placement</title>
<path fill="none" stroke="#506784" d="M1758.88,-45.87C1785.4,-43.42 1813.41,-40.83 1840.03,-38.37"/>
<polygon fill="#506784" stroke="#506784" points="1840.19,-41.87 1849.83,-37.47 1839.55,-34.9 1840.19,-41.87"/>
<text text-anchor="middle" x="1805.25" y="-45.81" font-family="Arial" font-size="9.00">may become</text>
</g>
<!-- PlacementAPI -->
<g id="node9" class="node">
<title>PlacementAPI</title>
<path fill="#eef4ff" stroke="#345995" d="M12,-132.5C12,-132.5 246,-132.5 246,-132.5 252,-132.5 258,-138.5 258,-144.5 258,-144.5 258,-176.5 258,-176.5 258,-182.5 252,-188.5 246,-188.5 246,-188.5 12,-188.5 12,-188.5 6,-188.5 0,-182.5 0,-176.5 0,-176.5 0,-144.5 0,-144.5 0,-138.5 6,-132.5 12,-132.5"/>
<text text-anchor="middle" x="39.5" y="-157" font-family="Arial" font-size="10.00">PlacementAPI</text>
<polyline fill="none" stroke="#345995" points="79,-132.5 79,-188.5"/>
<text text-anchor="middle" x="130.88" y="-163" font-family="Arial" font-size="10.00">app: Flask</text>
<text text-anchor="middle" x="130.88" y="-151" font-family="Arial" font-size="10.00">database: Database</text>
<polyline fill="none" stroke="#345995" points="182.75,-132.5 182.75,-188.5"/>
<text text-anchor="middle" x="220.38" y="-175" font-family="Arial" font-size="10.00">login()</text>
<text text-anchor="middle" x="220.38" y="-163" font-family="Arial" font-size="10.00">list_jobs()</text>
<text text-anchor="middle" x="220.38" y="-151" font-family="Arial" font-size="10.00">apply()</text>
<text text-anchor="middle" x="220.38" y="-139" font-family="Arial" font-size="10.00">admin_stats()</text>
</g>
<!-- Database -->
<g id="node10" class="node">
<title>Database</title>
<path fill="#eef4ff" stroke="#345995" d="M388.88,-194.5C388.88,-194.5 577.88,-194.5 577.88,-194.5 583.88,-194.5 589.88,-200.5 589.88,-206.5 589.88,-206.5 589.88,-226.5 589.88,-226.5 589.88,-232.5 583.88,-238.5 577.88,-238.5 577.88,-238.5 388.88,-238.5 388.88,-238.5 382.88,-238.5 376.88,-232.5 376.88,-226.5 376.88,-226.5 376.88,-206.5 376.88,-206.5 376.88,-200.5 382.88,-194.5 388.88,-194.5"/>
<text text-anchor="middle" x="405.88" y="-213" font-family="Arial" font-size="10.00">Database</text>
<polyline fill="none" stroke="#345995" points="434.88,-194.5 434.88,-238.5"/>
<text text-anchor="middle" x="484.12" y="-219" font-family="Arial" font-size="10.00">driver: sqlite/mysql</text>
<text text-anchor="middle" x="484.12" y="-207" font-family="Arial" font-size="10.00">connection</text>
<polyline fill="none" stroke="#345995" points="533.38,-194.5 533.38,-238.5"/>
<text text-anchor="middle" x="561.62" y="-225" font-family="Arial" font-size="10.00">execute()</text>
<text text-anchor="middle" x="561.62" y="-213" font-family="Arial" font-size="10.00">commit()</text>
<text text-anchor="middle" x="561.62" y="-201" font-family="Arial" font-size="10.00">close()</text>
</g>
<!-- PlacementAPI&#45;&gt;Database -->
<g id="edge9" class="edge">
<title>PlacementAPI&#45;&gt;Database</title>
<path fill="none" stroke="#506784" d="M258.21,-180.88C293.28,-186.45 331.1,-192.46 365.5,-197.93"/>
<polygon fill="#506784" stroke="#506784" points="364.62,-201.33 375.04,-199.44 365.71,-194.42 364.62,-201.33"/>
<text text-anchor="middle" x="309.75" y="-195.47" font-family="Arial" font-size="9.00">uses</text>
</g>
<!-- BPlusTree -->
<g id="node11" class="node">
<title>BPlusTree</title>
<path fill="#eef4ff" stroke="#345995" d="M396,-119.5C396,-119.5 570.75,-119.5 570.75,-119.5 576.75,-119.5 582.75,-125.5 582.75,-131.5 582.75,-131.5 582.75,-163.5 582.75,-163.5 582.75,-169.5 576.75,-175.5 570.75,-175.5 570.75,-175.5 396,-175.5 396,-175.5 390,-175.5 384,-169.5 384,-163.5 384,-163.5 384,-131.5 384,-131.5 384,-125.5 390,-119.5 396,-119.5"/>
<text text-anchor="middle" x="414.88" y="-144" font-family="Arial" font-size="10.00">BPlusTree</text>
<polyline fill="none" stroke="#345995" points="445.75,-119.5 445.75,-175.5"/>
<text text-anchor="middle" x="476.62" y="-150" font-family="Arial" font-size="10.00">order: int</text>
<text text-anchor="middle" x="476.62" y="-138" font-family="Arial" font-size="10.00">root: Node</text>
<polyline fill="none" stroke="#345995" points="507.5,-119.5 507.5,-175.5"/>
<text text-anchor="middle" x="545.12" y="-162" font-family="Arial" font-size="10.00">insert()</text>
<text text-anchor="middle" x="545.12" y="-150" font-family="Arial" font-size="10.00">search()</text>
<text text-anchor="middle" x="545.12" y="-138" font-family="Arial" font-size="10.00">range_query()</text>
<text text-anchor="middle" x="545.12" y="-126" font-family="Arial" font-size="10.00">delete()</text>
</g>
<!-- PlacementAPI&#45;&gt;BPlusTree -->
<g id="edge10" class="edge">
<title>PlacementAPI&#45;&gt;BPlusTree</title>
<path fill="none" stroke="#506784" d="M258.21,-155.77C295.66,-154.39 336.24,-152.89 372.45,-151.56"/>
<polygon fill="#506784" stroke="#506784" points="372.16,-155.07 382.03,-151.2 371.91,-148.07 372.16,-155.07"/>
<text text-anchor="middle" x="309.75" y="-156.73" font-family="Arial" font-size="9.00">benchmark uses</text>
</g>
</g>
</svg>
